<?xml version="1.0" encoding="utf-8"?>
<!-- Generator: Adobe Illustrator 16.0.2, SVG Export Plug-In . SVG Version: 6.00 Build 0)  -->
<!DOCTYPE svg PUBLIC "-//W3C//DTD SVG 1.1//EN" "http://www.w3.org/Graphics/SVG/1.1/DTD/svg11.dtd">
<svg version="1.1" id="Layer_1" xmlns="http://www.w3.org/2000/svg" xmlns:xlink="http://www.w3.org/1999/xlink" x="0px" y="0px"
	 width="520px" height="520px" viewBox="0 0 520 520" enable-background="new 0 0 520 520" xml:space="preserve">
<g>
	<g>
		
			<image overflow="visible" opacity="0.75" width="2003" height="2003" xlink:href="shadow.png"  transform="matrix(0.24 0 0 0.24 21.2495 21.25)">
		</image>
		<g>
			<path fill="#F2F2F2" d="M260,53.5C145.953,53.5,53.5,145.953,53.5,260S145.953,466.5,260,466.5
				c114.047,0,206.5-92.453,206.5-206.5S374.047,53.5,260,53.5z M260,428.346c-93.06,0-168.5-75.441-168.5-168.501
				c0-93.06,75.44-168.5,168.5-168.5c93.059,0,168.5,75.44,168.5,168.5C428.5,352.904,353.059,428.346,260,428.346z"/>
		</g>
	</g>
	<g>
		<path fill="#1F3877" d="M259.539,177.27l4.7-36.896c0.5-2.6-0.266-4.433-2.1-4.433h-2.367c-0.5,0-2.867,0-2.867,0
			c-1.834,0-2.599,1.567-2.1,4.433L259.539,177.27z"/>
		<path fill="#1F3877" d="M282.502,149.472l-1.568-0.767l-1.564-0.767c-0.533-0.233-0.768-0.5-1.033-0.5
			c-0.768,0-1.834,0.767-2.1,2.1l-10.734,25.629l16.766-21.964C283.602,151.606,283.871,150.34,282.502,149.472z"/>
		<path fill="#1F3877" d="M361.459,218.029l-7.299-38.727c-0.766-4.432-4.965-9.133-9.666-10.465l-45.795-11.766
			c-1.066-0.266-2.1-0.266-3.432-0.266c-3.668,0.266-7.598,1.833-9.965,4.699l-25.63,29.831c-0.267,0.267-0.5,0.766-0.768,1.034
			l6.031,12.563c2.102-1.833,5-2.601,7.867-2.099c4.465,1.333,7.365,6.031,6.033,10.464c-1.033,3.7-4.133,6.032-7.566,6.299
			c0.5,2.1,0.766,4.434,0.766,6.535v4.965l64.627,17.263l-1.336,4.199l-1.029,3.933c-0.27,1.3,0.498,2.867,1.83,3.133l13.066,3.433
			c1.299,0.267,2.867-0.499,3.131-1.835l1.035-3.931l7.865-29.563C362.059,224.631,362.293,221.964,361.459,218.029z
			 M272.836,193.467l17.799-20.631c2.1-2.366,3.932-3.666,6.033-3.934c1.299,0,2.602,0,4.432,0.5l36.365,9.965
			c4.697,1.334,6.529,2.933,7.564,8.133l4.967,26.664L272.836,193.467z M351.061,232.996c-1.332,4.464-6.033,7.365-10.465,6.032
			c-4.434-1.333-7.098-6.032-5.766-10.463c0.766-3.7,3.633-6.035,7.066-6.3c0.531,0,1.033,0,1.566,0c0.531,0,1.064,0,1.566,0.265
			C349.496,223.796,352.326,228.497,351.061,232.996z"/>
		<path fill="#1F3877" d="M249.073,181.702c-2.1-4.133-7.365-7.565-12.064-7.565h-48.127c-4.699,0-9.932,3.366-11.766,7.565
			l-16.998,35.563c-1.6,3.366-2.1,5.966-2.1,9.398v30.596v4.2c0,1.568,1.033,2.6,2.6,2.6h13.664c1.568,0,2.6-1.265,2.6-2.6v-4.2
			v-4.434h72.491v4.434v4.2c0,1.568,1.032,2.6,2.599,2.6h13.599c1.568,0,2.6-1.265,2.6-2.6v-4.2v-30.596
			c0-3.366-0.533-5.732-2.1-9.398L249.073,181.702z M184.983,191.168c1.799-3.933,3.633-5.266,7.299-5.767c0.5,0,1.066,0,1.832,0
			h37.663c4.966,0,7.032,1.067,9.399,5.767l11.499,24.563h-79.493L184.983,191.168z M175.549,242.128
			c-4.699,0-8.366-3.933-8.366-8.633c0-4.7,3.667-8.365,8.366-8.365c4.698,0,8.632,3.667,8.632,8.365
			C184.182,238.229,180.249,242.128,175.549,242.128z M250.339,242.128c-4.698,0-8.366-3.933-8.366-8.633
			c0-4.7,3.668-8.365,8.366-8.365s8.632,3.667,8.632,8.365C258.973,238.229,255.04,242.161,250.339,242.128z"/>
		<path fill="#1F3877" d="M253.773,177.503l-10.731-25.63c-0.5-1.333-1.333-2.1-2.1-2.1c-0.267,0-0.5,0-0.768,0
			s-0.266,0.267-0.499,0.267l-1.567,0.767l-1.332,1.033c-1.334,0.767-1.033,2.1,0.268,3.666L253.773,177.503z"/>
	</g>
</g>
</svg>
