<?xml version="1.0" encoding="utf-8"?>
<!-- Generator: Adobe Illustrator 16.0.2, SVG Export Plug-In . SVG Version: 6.00 Build 0)  -->
<!DOCTYPE svg PUBLIC "-//W3C//DTD SVG 1.1//EN" "http://www.w3.org/Graphics/SVG/1.1/DTD/svg11.dtd">
<svg version="1.1" id="Layer_1" xmlns="http://www.w3.org/2000/svg" xmlns:xlink="http://www.w3.org/1999/xlink" x="0px" y="0px"
	 width="520px" height="520px" viewBox="0 0 520 520" enable-background="new 0 0 520 520" xml:space="preserve">
<g>
	<g>
		<g>
			
				<image overflow="visible" opacity="0.75" width="2003" height="2003" xlink:href="shadow.png"  transform="matrix(0.24 0 0 0.24 21.25 21.25)">
			</image>
			<g>
				<path fill="#F2F2F2" d="M260,53.5C145.953,53.5,53.5,145.953,53.5,260S145.953,466.5,260,466.5S466.5,374.047,466.5,260
					S374.047,53.5,260,53.5z M260,428.345c-93.06,0-168.5-75.44-168.5-168.5s75.44-168.5,168.5-168.5s168.5,75.44,168.5,168.5
					S353.06,428.345,260,428.345z"/>
			</g>
		</g>
		<g>
			<path fill="#1F3877" d="M259.539,177.27l4.699-36.896c0.501-2.6-0.265-4.433-2.099-4.433h-2.367c-0.5,0-2.867,0-2.867,0
				c-1.834,0-2.599,1.567-2.1,4.433L259.539,177.27z"/>
			<path fill="#1F3877" d="M282.503,149.473l-1.568-0.768l-1.564-0.767c-0.533-0.233-0.768-0.499-1.034-0.499
				c-0.767,0-1.833,0.766-2.1,2.1l-10.733,25.629l16.765-21.964C283.603,151.605,283.872,150.34,282.503,149.473z"/>
			<path fill="#1F3877" d="M361.459,218.029l-7.299-38.728c-0.766-4.433-4.965-9.133-9.665-10.466L298.7,157.07
				c-1.066-0.266-2.1-0.266-3.432-0.266c-3.668,0.266-7.599,1.834-9.966,4.699l-25.63,29.83c-0.267,0.268-0.5,0.767-0.768,1.034
				l6.031,12.563c2.102-1.834,5-2.601,7.867-2.099c4.465,1.333,7.365,6.031,6.033,10.464c-1.033,3.699-4.133,6.032-7.567,6.299
				c0.501,2.1,0.767,4.434,0.767,6.535v4.965l64.627,17.264l-1.336,4.199l-1.03,3.933c-0.269,1.3,0.499,2.866,1.831,3.134
				l13.065,3.433c1.299,0.267,2.867-0.499,3.131-1.835l1.035-3.931l7.865-29.563C362.06,224.631,362.294,221.965,361.459,218.029z
				 M272.837,193.467l17.799-20.631c2.1-2.366,3.932-3.666,6.033-3.934c1.299,0,2.601,0,4.432,0.5l36.364,9.965
				c4.698,1.334,6.53,2.933,7.565,8.133l4.966,26.664L272.837,193.467z M351.062,232.996c-1.332,4.465-6.033,7.365-10.465,6.032
				c-4.434-1.333-7.099-6.032-5.766-10.464c0.766-3.699,3.633-6.035,7.066-6.3c0.53,0,1.032,0,1.565,0c0.532,0,1.065,0,1.567,0.265
				C349.496,223.797,352.327,228.496,351.062,232.996z"/>
			<path fill="#1F3877" d="M249.073,181.702c-2.1-4.134-7.365-7.565-12.064-7.565h-48.127c-4.699,0-9.932,3.366-11.766,7.565
				l-16.998,35.563c-1.6,3.366-2.1,5.966-2.1,9.398v30.597v4.199c0,1.568,1.033,2.6,2.6,2.6h13.664c1.568,0,2.6-1.265,2.6-2.6
				v-4.199v-4.434h72.491v4.434v4.199c0,1.568,1.032,2.6,2.599,2.6h13.6c1.567,0,2.6-1.265,2.6-2.6v-4.199v-30.597
				c0-3.366-0.533-5.732-2.101-9.398L249.073,181.702z M184.983,191.168c1.799-3.934,3.633-5.266,7.299-5.768c0.5,0,1.066,0,1.832,0
				h37.663c4.966,0,7.032,1.067,9.399,5.768l11.499,24.563h-79.493L184.983,191.168z M175.55,242.129
				c-4.699,0-8.366-3.934-8.366-8.634s3.667-8.364,8.366-8.364c4.698,0,8.632,3.667,8.632,8.364
				C184.183,238.229,180.249,242.129,175.55,242.129z M250.34,242.129c-4.698,0-8.366-3.934-8.366-8.634s3.668-8.364,8.366-8.364
				s8.632,3.667,8.632,8.364C258.974,238.229,255.04,242.16,250.34,242.129z"/>
			<path fill="#1F3877" d="M253.773,177.503l-10.731-25.63c-0.5-1.333-1.333-2.1-2.1-2.1c-0.267,0-0.5,0-0.768,0
				s-0.266,0.266-0.499,0.266l-1.567,0.768l-1.332,1.033c-1.334,0.768-1.033,2.1,0.268,3.666L253.773,177.503z"/>
		</g>
	</g>
	<path fill="#1F3877" d="M260,53.5v37.844c93.06,0,168.5,75.439,168.5,168.5c0,66.199-38.183,123.473-93.72,151.025l13.528,35.836
		C418.175,413.602,466.5,342.448,466.5,260C466.5,145.953,374.047,53.5,260,53.5z"/>
</g>
</svg>
