<?xml version="1.0" encoding="utf-8"?>
<!-- Generator: Adobe Illustrator 16.0.2, SVG Export Plug-In . SVG Version: 6.00 Build 0)  -->
<!DOCTYPE svg PUBLIC "-//W3C//DTD SVG 1.1//EN" "http://www.w3.org/Graphics/SVG/1.1/DTD/svg11.dtd">
<svg version="1.1" id="Layer_1" xmlns="http://www.w3.org/2000/svg" xmlns:xlink="http://www.w3.org/1999/xlink" x="0px" y="0px"
	 width="520px" height="520px" viewBox="0 0 520 520" enable-background="new 0 0 520 520" xml:space="preserve">
<g>
	<g>
		<g>
			
				<image overflow="visible" opacity="0.75" width="2003" height="2003" xlink:href="shadow.png"  transform="matrix(0.24 0 0 0.24 21.2505 21.25)">
			</image>
			<g>
				<path fill="#F2F2F2" d="M260,53.5C145.954,53.5,53.5,145.953,53.5,260S145.954,466.5,260,466.5
					c114.046,0,206.5-92.453,206.5-206.5S374.047,53.5,260,53.5z M260,428.345c-93.06,0-168.5-75.44-168.5-168.5
					s75.44-168.5,168.5-168.5c93.06,0,168.5,75.44,168.5,168.5S353.061,428.345,260,428.345z"/>
			</g>
		</g>
		<g>
			<path fill="#1F3877" d="M259.54,177.27l4.699-36.896c0.502-2.6-0.264-4.433-2.098-4.433h-2.368c-0.5,0-2.867,0-2.867,0
				c-1.834,0-2.599,1.567-2.1,4.433L259.54,177.27z"/>
			<path fill="#1F3877" d="M282.504,149.473l-1.568-0.768l-1.564-0.767c-0.533-0.233-0.768-0.499-1.035-0.499
				c-0.766,0-1.832,0.766-2.1,2.1l-10.732,25.629l16.764-21.964C283.604,151.605,283.873,150.34,282.504,149.473z"/>
			<path fill="#1F3877" d="M361.459,218.029l-7.299-38.728c-0.766-4.433-4.965-9.133-9.664-10.466l-45.795-11.766
				c-1.066-0.266-2.1-0.266-3.432-0.266c-3.668,0.266-7.6,1.834-9.967,4.699l-25.629,29.83c-0.267,0.268-0.5,0.767-0.768,1.034
				l6.032,12.563c2.102-1.834,5-2.601,7.867-2.099c4.465,1.333,7.365,6.031,6.033,10.464c-1.033,3.699-4.133,6.032-7.568,6.299
				c0.502,2.1,0.768,4.434,0.768,6.535v4.965l64.627,17.264l-1.336,4.199l-1.031,3.933c-0.268,1.3,0.5,2.866,1.832,3.134
				l13.064,3.433c1.299,0.267,2.867-0.499,3.131-1.835l1.035-3.931l7.865-29.563C362.061,224.631,362.295,221.965,361.459,218.029z
				 M272.838,193.467l17.799-20.631c2.1-2.366,3.932-3.666,6.033-3.934c1.299,0,2.6,0,4.432,0.5l36.363,9.965
				c4.699,1.334,6.531,2.933,7.566,8.133l4.965,26.664L272.838,193.467z M351.063,232.996c-1.332,4.465-6.033,7.365-10.465,6.032
				c-4.434-1.333-7.1-6.032-5.766-10.464c0.766-3.699,3.633-6.035,7.066-6.3c0.529,0,1.031,0,1.564,0s1.066,0,1.568,0.265
				C349.496,223.797,352.328,228.496,351.063,232.996z"/>
			<path fill="#1F3877" d="M249.074,181.702c-2.1-4.134-7.365-7.565-12.064-7.565h-48.127c-4.699,0-9.932,3.366-11.766,7.565
				l-16.998,35.563c-1.6,3.366-2.1,5.966-2.1,9.398v30.597v4.199c0,1.568,1.033,2.6,2.6,2.6h13.664c1.568,0,2.6-1.265,2.6-2.6
				v-4.199v-4.434h72.491v4.434v4.199c0,1.568,1.032,2.6,2.599,2.6h13.6c1.566,0,2.6-1.265,2.6-2.6v-4.199v-30.597
				c0-3.366-0.533-5.732-2.102-9.398L249.074,181.702z M184.984,191.168c1.799-3.934,3.633-5.266,7.299-5.768c0.5,0,1.066,0,1.832,0
				h37.663c4.966,0,7.032,1.067,9.399,5.768l11.499,24.563h-79.493L184.984,191.168z M175.55,242.129
				c-4.699,0-8.366-3.934-8.366-8.634s3.667-8.364,8.366-8.364c4.698,0,8.632,3.667,8.632,8.364
				C184.183,238.229,180.25,242.129,175.55,242.129z M250.34,242.129c-4.698,0-8.366-3.934-8.366-8.634s3.668-8.364,8.366-8.364
				s8.632,3.667,8.632,8.364C258.974,238.229,255.041,242.16,250.34,242.129z"/>
			<path fill="#1F3877" d="M253.774,177.503l-10.731-25.63c-0.5-1.333-1.333-2.1-2.1-2.1c-0.267,0-0.5,0-0.768,0
				s-0.266,0.266-0.499,0.266l-1.567,0.768l-1.332,1.033c-1.334,0.768-1.033,2.1,0.268,3.666L253.774,177.503z"/>
		</g>
	</g>
	<path fill="#1F3877" d="M260,53.5v37.845c93.06,0,168.5,75.439,168.5,168.5c0,93.06-75.439,168.499-168.5,168.499
		c-80.603,0-147.969-56.601-164.565-132.22l-36.42,11.386C80.477,398.651,162.306,466.5,260,466.5
		c114.046,0,206.5-92.453,206.5-206.5S374.047,53.5,260,53.5z"/>
</g>
</svg>
