<?xml version="1.0" encoding="utf-8"?>
<!-- Generator: Adobe Illustrator 16.0.2, SVG Export Plug-In . SVG Version: 6.00 Build 0)  -->
<!DOCTYPE svg PUBLIC "-//W3C//DTD SVG 1.1//EN" "http://www.w3.org/Graphics/SVG/1.1/DTD/svg11.dtd">
<svg version="1.1" id="Layer_1" xmlns="http://www.w3.org/2000/svg" xmlns:xlink="http://www.w3.org/1999/xlink" x="0px" y="0px"
	 width="520px" height="520px" viewBox="0 0 520 520" enable-background="new 0 0 520 520" xml:space="preserve">
<g>
	<g>
		<g>
			
				<image overflow="visible" opacity="0.75" width="2003" height="2003" xlink:href="shadow.png"  transform="matrix(0.24 0 0 0.24 21.25 21.2505)">
			</image>
			<g>
				<path fill="#F2F2F2" d="M260,53.5C145.953,53.5,53.5,145.954,53.5,260c0,114.047,92.453,206.5,206.5,206.5
					S466.5,374.047,466.5,260C466.5,145.954,374.047,53.5,260,53.5z M260,428.344c-93.061,0-168.5-75.439-168.5-168.5
					c0-93.059,75.439-168.5,168.5-168.5c93.06,0,168.5,75.44,168.5,168.5C428.5,352.904,353.06,428.344,260,428.344z"/>
			</g>
		</g>
		<g>
			<path fill="#1F3877" d="M259.539,177.27l4.699-36.896c0.5-2.6-0.266-4.432-2.098-4.432h-2.368c-0.499,0-2.866,0-2.866,0
				c-1.834,0-2.6,1.566-2.101,4.432L259.539,177.27z"/>
			<path fill="#1F3877" d="M282.503,149.472l-1.567-0.767l-1.566-0.768c-0.533-0.232-0.767-0.499-1.033-0.499
				c-0.768,0-1.833,0.767-2.1,2.101l-10.732,25.629l16.764-21.965C283.603,151.606,283.871,150.34,282.503,149.472z"/>
			<path fill="#1F3877" d="M361.459,218.029l-7.299-38.728c-0.766-4.432-4.965-9.133-9.665-10.465L298.7,157.071
				c-1.065-0.266-2.1-0.266-3.433-0.266c-3.668,0.266-7.598,1.833-9.965,4.699l-25.63,29.83c-0.267,0.267-0.499,0.766-0.767,1.033
				l6.031,12.564c2.101-1.834,5-2.602,7.867-2.1c4.464,1.333,7.364,6.031,6.031,10.465c-1.031,3.699-4.131,6.031-7.566,6.299
				c0.501,2.099,0.768,4.433,0.768,6.535v4.965l64.626,17.264l-1.336,4.199l-1.03,3.932c-0.269,1.301,0.499,2.867,1.831,3.135
				l13.065,3.432c1.299,0.268,2.867-0.498,3.131-1.834l1.035-3.932l7.865-29.563C362.06,224.631,362.294,221.965,361.459,218.029z
				 M272.836,193.467l17.801-20.631c2.098-2.367,3.932-3.666,6.032-3.934c1.299,0,2.601,0,4.433,0.499l36.363,9.965
				c4.698,1.335,6.53,2.933,7.565,8.133l4.966,26.664L272.836,193.467z M351.062,232.996c-1.332,4.465-6.033,7.365-10.465,6.031
				c-4.434-1.332-7.099-6.031-5.766-10.463c0.766-3.699,3.633-6.035,7.066-6.301c0.53,0,1.032,0,1.565,0
				c0.532,0,1.065,0,1.567,0.266C349.496,223.797,352.327,228.496,351.062,232.996z"/>
			<path fill="#1F3877" d="M249.073,181.702c-2.1-4.133-7.366-7.564-12.064-7.564h-48.127c-4.698,0-9.932,3.365-11.765,7.564
				l-16.998,35.563c-1.601,3.367-2.1,5.966-2.1,9.398v30.598v4.199c0,1.568,1.033,2.6,2.599,2.6h13.665
				c1.566,0,2.599-1.266,2.599-2.6v-4.199v-4.434h72.491v4.434v4.199c0,1.568,1.033,2.6,2.6,2.6h13.598
				c1.568,0,2.602-1.266,2.602-2.6v-4.199v-30.598c0-3.365-0.533-5.732-2.102-9.398L249.073,181.702z M184.983,191.168
				c1.799-3.934,3.632-5.267,7.299-5.768c0.499,0,1.067,0,1.833,0h37.662c4.967,0,7.031,1.066,9.399,5.768l11.499,24.563h-79.492
				L184.983,191.168z M175.549,242.129c-4.698,0-8.365-3.934-8.365-8.635c0-4.699,3.667-8.363,8.365-8.363
				c4.699,0,8.633,3.666,8.633,8.363C184.184,238.229,180.25,242.129,175.549,242.129z M250.34,242.129
				c-4.699,0-8.365-3.934-8.365-8.635c0-4.699,3.666-8.363,8.365-8.363s8.633,3.666,8.633,8.363
				C258.974,238.229,255.04,242.16,250.34,242.129z"/>
			<path fill="#1F3877" d="M253.773,177.502l-10.731-25.63c-0.5-1.333-1.333-2.1-2.101-2.1c-0.266,0-0.499,0-0.766,0
				c-0.268,0-0.268,0.267-0.5,0.267l-1.567,0.768l-1.332,1.033c-1.333,0.767-1.034,2.1,0.267,3.665L253.773,177.502z"/>
		</g>
	</g>
	<path fill="#1F3877" d="M260,53.5v37.845c93.059,0,168.5,75.439,168.5,168.5c0,93.059-75.441,168.498-168.5,168.498
		c-93.061,0-168.5-75.439-168.5-168.498c0-38.988,13.256-74.869,35.486-103.417L96.82,133.467C69.676,168.421,53.5,212.317,53.5,260
		c0,114.047,92.453,206.5,206.5,206.5S466.5,374.047,466.5,260C466.5,145.954,374.047,53.5,260,53.5z"/>
</g>
</svg>
