<?xml version="1.0" encoding="utf-8"?>
<!-- Generator: Adobe Illustrator 16.0.2, SVG Export Plug-In . SVG Version: 6.00 Build 0)  -->
<!DOCTYPE svg PUBLIC "-//W3C//DTD SVG 1.1//EN" "http://www.w3.org/Graphics/SVG/1.1/DTD/svg11.dtd">
<svg version="1.1" id="Layer_1" xmlns="http://www.w3.org/2000/svg" xmlns:xlink="http://www.w3.org/1999/xlink" x="0px" y="0px"
	 width="520px" height="520px" viewBox="0 0 520 520" enable-background="new 0 0 520 520" xml:space="preserve">
<g>
	<g>
		<g>
			
				<image overflow="visible" opacity="0.75" width="2003" height="2003" xlink:href="shadow.png"  transform="matrix(0.24 0 0 0.24 21.251 21.25)">
			</image>
			<g>
				<path fill="#F2F2F2" d="M260.001,53.5c-114.047,0-206.5,92.453-206.5,206.5s92.453,206.5,206.5,206.5
					C374.047,466.5,466.5,374.047,466.5,260S374.047,53.5,260.001,53.5z M260.001,428.345c-93.06,0-168.5-75.439-168.5-168.5
					s75.44-168.5,168.5-168.5S428.5,166.784,428.5,259.845S353.061,428.345,260.001,428.345z"/>
			</g>
		</g>
		<g>
			<path fill="#1F3877" d="M259.54,177.27l4.699-36.896c0.501-2.6-0.265-4.433-2.098-4.433h-2.367c-0.5,0-2.867,0-2.867,0
				c-1.834,0-2.6,1.567-2.1,4.433L259.54,177.27z"/>
			<path fill="#1F3877" d="M282.505,149.472l-1.568-0.766l-1.565-0.768c-0.533-0.233-0.767-0.5-1.034-0.5
				c-0.767,0-1.832,0.768-2.1,2.101l-10.732,25.63l16.764-21.965C283.604,151.606,283.873,150.341,282.505,149.472z"/>
			<path fill="#1F3877" d="M361.459,218.028l-7.299-38.727c-0.766-4.432-4.965-9.133-9.664-10.465l-45.794-11.766
				c-1.066-0.267-2.1-0.267-3.433-0.267c-3.668,0.267-7.599,1.833-9.966,4.699l-25.629,29.831c-0.268,0.266-0.5,0.766-0.768,1.033
				l6.031,12.563c2.102-1.833,5-2.601,7.867-2.099c4.465,1.332,7.365,6.031,6.032,10.464c-1.032,3.7-4.132,6.032-7.567,6.299
				c0.502,2.1,0.768,4.434,0.768,6.534v4.966l64.627,17.263l-1.336,4.199l-1.031,3.934c-0.268,1.3,0.5,2.867,1.832,3.133
				l13.063,3.434c1.299,0.267,2.867-0.499,3.131-1.834l1.035-3.932l7.865-29.563C362.061,224.631,362.295,221.964,361.459,218.028z
				 M272.838,193.468l17.8-20.632c2.099-2.366,3.932-3.665,6.033-3.934c1.299,0,2.6,0,4.432,0.499l36.363,9.965
				c4.698,1.335,6.53,2.934,7.565,8.133l4.965,26.664L272.838,193.468z M351.063,232.996c-1.332,4.464-6.033,7.364-10.464,6.032
				c-4.434-1.334-7.1-6.032-5.766-10.463c0.766-3.7,3.633-6.035,7.065-6.301c0.529,0,1.031,0,1.564,0s1.066,0,1.568,0.266
				C349.496,223.796,352.328,228.497,351.063,232.996z"/>
			<path fill="#1F3877" d="M249.075,181.702c-2.1-4.133-7.366-7.565-12.064-7.565h-48.127c-4.699,0-9.932,3.366-11.766,7.565
				l-16.998,35.563c-1.6,3.366-2.1,5.967-2.1,9.398v30.596v4.2c0,1.567,1.033,2.601,2.6,2.601h13.664c1.567,0,2.6-1.266,2.6-2.601
				v-4.2v-4.434h72.49v4.434v4.2c0,1.567,1.033,2.601,2.6,2.601h13.599c1.567,0,2.601-1.266,2.601-2.601v-4.2v-30.596
				c0-3.366-0.533-5.732-2.102-9.398L249.075,181.702z M184.985,191.168c1.799-3.933,3.632-5.267,7.299-5.767
				c0.499,0,1.066,0,1.832,0h37.662c4.967,0,7.032,1.066,9.4,5.767l11.498,24.563h-79.492L184.985,191.168z M175.551,242.128
				c-4.698,0-8.366-3.933-8.366-8.633c0-4.699,3.668-8.365,8.366-8.365s8.632,3.668,8.632,8.365
				C184.185,238.229,180.251,242.128,175.551,242.128z M250.341,242.128c-4.698,0-8.365-3.933-8.365-8.633
				c0-4.699,3.667-8.365,8.365-8.365c4.699,0,8.633,3.668,8.633,8.365C258.976,238.229,255.042,242.161,250.341,242.128z"/>
			<path fill="#1F3877" d="M253.774,177.503l-10.73-25.631c-0.5-1.332-1.334-2.1-2.101-2.1c-0.267,0-0.499,0-0.767,0
				s-0.267,0.268-0.5,0.268l-1.566,0.767l-1.332,1.033c-1.334,0.767-1.034,2.1,0.267,3.665L253.774,177.503z"/>
		</g>
	</g>
	<path fill="#1F3877" d="M260.001,53.5c-114.047,0-206.5,92.453-206.5,206.5s92.453,206.5,206.5,206.5
		C374.047,466.5,466.5,374.047,466.5,260S374.047,53.5,260.001,53.5z M260.001,428.344c-93.059,0-168.5-75.439-168.5-168.499
		c0-93.061,75.441-168.5,168.5-168.5c93.06,0,168.499,75.439,168.499,168.5C428.5,352.904,353.061,428.344,260.001,428.344z"/>
</g>
</svg>
