<?xml version="1.0" encoding="utf-8"?>
<!-- Generator: Adobe Illustrator 16.0.2, SVG Export Plug-In . SVG Version: 6.00 Build 0)  -->
<!DOCTYPE svg PUBLIC "-//W3C//DTD SVG 1.1//EN" "http://www.w3.org/Graphics/SVG/1.1/DTD/svg11.dtd">
<svg version="1.1"
	 id="ico_sinistri" sodipodi:docname="ico-sinistri.svg" inkscape:version="0.91 r13725" xmlns:sodipodi="http://sodipodi.sourceforge.net/DTD/sodipodi-0.dtd" xmlns:rdf="http://www.w3.org/1999/02/22-rdf-syntax-ns#" xmlns:cc="http://creativecommons.org/ns#" xmlns:inkscape="http://www.inkscape.org/namespaces/inkscape" xmlns:svg="http://www.w3.org/2000/svg" xmlns:dc="http://purl.org/dc/elements/1.1/"
	 xmlns="http://www.w3.org/2000/svg" xmlns:xlink="http://www.w3.org/1999/xlink" x="0px" y="0px" width="180px" height="180px"
	 viewBox="0 0 180 180" enable-background="new 0 0 180 180" xml:space="preserve">
<sodipodi:namedview  id="namedview3398" inkscape:window-width="1551" inkscape:window-height="1176" inkscape:window-x="49" inkscape:pageshadow="2" inkscape:pageopacity="0" inkscape:window-y="24" inkscape:current-layer="ico_sinistri" pagecolor="#ffffff" objecttolerance="10" inkscape:zoom="12.256637" borderopacity="1" gridtolerance="10" inkscape:cy="30" inkscape:cx="56.5" guidetolerance="10" showgrid="false" bordercolor="#666666" inkscape:window-maximized="1">
	</sodipodi:namedview>
<title>Layer 1</title>
<g>
	<path fill="#3D6299" d="M89.652,72.842l3.547-27.851c0.378-1.962-0.2-3.346-1.584-3.346h-1.787c-0.377,0-2.164,0-2.164,0
		c-1.384,0-1.962,1.183-1.585,3.346L89.652,72.842z"/>
	<path fill="#3D6299" d="M106.986,51.859l-1.183-0.579l-1.182-0.579c-0.402-0.176-0.579-0.377-0.78-0.377
		c-0.579,0-1.384,0.579-1.585,1.585l-8.101,19.347l12.654-16.58C107.816,53.47,108.019,52.514,106.986,51.859z"/>
	<path fill="#3D6299" d="M166.587,103.61l-5.51-29.234c-0.578-3.346-3.748-6.894-7.296-7.9l-34.568-8.881
		c-0.805-0.201-1.585-0.201-2.591-0.201c-2.768,0.201-5.736,1.384-7.522,3.547L89.753,83.459c-0.201,0.201-0.377,0.578-0.579,0.78
		l4.553,9.484c1.585-1.384,3.774-1.963,5.938-1.585c3.37,1.006,5.56,4.554,4.554,7.899c-0.78,2.793-3.12,4.554-5.712,4.755
		c0.378,1.585,0.579,3.347,0.579,4.932v3.748l48.783,13.032l-1.007,3.17l-0.779,2.969c-0.202,0.981,0.377,2.164,1.383,2.365
		l9.862,2.591c0.98,0.202,2.164-0.377,2.364-1.384l0.78-2.968l5.938-22.315C167.04,108.593,167.217,106.58,166.587,103.61z
		 M99.69,85.069l13.436-15.574c1.584-1.786,2.968-2.767,4.554-2.969c0.98,0,1.962,0,3.346,0.377l27.448,7.522
		c3.547,1.007,4.931,2.214,5.711,6.139l3.749,20.127L99.69,85.069z M158.738,114.907c-1.006,3.371-4.554,5.56-7.899,4.554
		c-3.347-1.007-5.359-4.554-4.353-7.899c0.578-2.793,2.742-4.555,5.334-4.756c0.401,0,0.779,0,1.182,0s0.805,0,1.183,0.201
		C157.556,107.963,159.694,111.511,158.738,114.907z"/>
	<path fill="#3D6299" d="M81.752,76.188c-1.585-3.12-5.56-5.711-9.107-5.711H36.316c-3.547,0-7.497,2.541-8.881,5.711
		l-12.831,26.844c-1.208,2.541-1.585,4.504-1.585,7.095v23.096v3.17c0,1.183,0.78,1.963,1.962,1.963h10.315
		c1.183,0,1.962-0.956,1.962-1.963v-3.17v-3.347h54.72v3.347v3.17c0,1.183,0.78,1.963,1.962,1.963h10.265
		c1.183,0,1.963-0.956,1.963-1.963v-3.17v-23.096c0-2.541-0.402-4.327-1.586-7.095L81.752,76.188z M33.373,83.333
		c1.358-2.969,2.742-3.975,5.51-4.353c0.377,0,0.805,0,1.383,0h28.43c3.749,0,5.308,0.805,7.095,4.353l8.68,18.542H24.466
		L33.373,83.333z M26.252,121.801c-3.547,0-6.315-2.969-6.315-6.517c0-3.547,2.768-6.314,6.315-6.314s6.516,2.768,6.516,6.314
		C32.769,118.857,29.8,121.801,26.252,121.801z M82.708,121.801c-3.547,0-6.315-2.969-6.315-6.517c0-3.547,2.768-6.314,6.315-6.314
		s6.516,2.768,6.516,6.314C89.225,118.857,86.256,121.825,82.708,121.801z"/>
	<path fill="#3D6299" d="M85.3,73.018l-8.101-19.347c-0.377-1.006-1.006-1.585-1.585-1.585c-0.201,0-0.377,0-0.579,0
		s-0.201,0.201-0.377,0.201l-1.183,0.579l-1.006,0.78c-1.006,0.579-0.78,1.585,0.202,2.767L85.3,73.018z"/>
</g>
</svg>
