<?xml version="1.0" encoding="utf-8"?>
<!-- Generator: Adobe Illustrator 16.0.2, SVG Export Plug-In . SVG Version: 6.00 Build 0)  -->
<!DOCTYPE svg PUBLIC "-//W3C//DTD SVG 1.1//EN" "http://www.w3.org/Graphics/SVG/1.1/DTD/svg11.dtd">
<svg version="1.1" id="Layer_1" xmlns="http://www.w3.org/2000/svg" xmlns:xlink="http://www.w3.org/1999/xlink" x="0px" y="0px"
	 width="470.764px" height="229.128px" viewBox="0 0 470.764 229.128" enable-background="new 0 0 470.764 229.128"
	 xml:space="preserve">
<g>
	<path fill="#CECECE" d="M375.768,35.431H194.163l1.49-1.49c2.213-2.213,2.213-5.801,0-8.014s-5.801-2.213-8.015,0l-9.096,9.097
		c-0.126,0.127-0.22,0.272-0.332,0.407H94.994c-24.927,0-45.134,26.865-45.134,79.133c0,50.268,20.207,79.599,45.134,79.599h83.608
		l9.036,9.037c2.214,2.213,5.802,2.213,8.015,0s2.213-5.801,0-8.014l-1.022-1.023h181.137c24.928,0,45.135-20.206,45.135-45.134
		V80.565C420.902,55.638,400.695,35.431,375.768,35.431 M412.434,66.898c-5.773-1.393-13.898-3.909-17.156-7.121
		c-3.605-3.555-7.447-11.953-9.574-17.065C398.041,45.955,408.016,55.081,412.434,66.898 M88.756,42.155L76.905,62.966H65.742
		c0.774-1.539,1.583-3.023,2.445-4.42C73.701,49.6,80.73,44.035,88.756,42.155 M68.225,170.127c-0.76-1.266-1.474-2.6-2.166-3.965
		h10.847l12.122,21.286C81.03,185.509,73.921,179.624,68.225,170.127 M188.631,188.163h-11.393H94.994
		c-0.328,0-0.652-0.023-0.977-0.037l-14.211-24.954c-0.356-0.625-1.019-1.01-1.738-1.01H64.174
		c-2.853-6.629-4.99-14.238-6.384-22.66l57.959,14.688c0.165,0.041,0.33,0.061,0.493,0.061c0.893,0,1.707-0.602,1.936-1.508
		c0.272-1.07-0.377-2.158-1.447-2.43l-59.583-15.096c-0.85-6.471-1.288-13.375-1.288-20.652c0-7.303,0.411-14.199,1.216-20.633
		l59.655-15.116c1.07-0.271,1.719-1.359,1.447-2.43c-0.271-1.072-1.362-1.725-2.429-1.447L57.682,89.652
		c1.344-8.514,3.426-16.126,6.205-22.686h14.181c0.719,0,1.382-0.386,1.738-1.011l13.942-24.481
		c0.414-0.018,0.827-0.043,1.246-0.043h82.444h10.725h187.604c1.779,0,3.525,0.131,5.242,0.361
		c1.795,4.564,6.627,16.068,11.459,20.832c4.74,4.674,16.148,7.568,21.316,8.684c0.725,2.97,1.117,6.067,1.117,9.257v68.464
		c0,3.016-0.355,5.945-1.002,8.766c-5.115,1.098-16.656,4-21.432,8.709c-5.016,4.945-10.033,17.155-11.65,21.323
		c-1.656,0.213-3.338,0.336-5.051,0.336H188.631z M385.486,186.94c2.074-5.041,6.059-13.909,9.791-17.589
		c3.295-3.248,11.559-5.783,17.342-7.166C408.275,174.32,398.102,183.706,385.486,186.94"/>
	<path fill="#CECECE" d="M220.855,164.832v-98.35c0-0.848-0.535-1.603-1.332-1.886l-40.646-14.393
		c-0.707-0.248-1.488-0.084-2.034,0.425c-1.089,1.019-26.667,25.394-26.667,65.028c0,39.635,25.578,64.009,26.667,65.028
		c0.377,0.352,0.867,0.539,1.366,0.539c0.224,0,0.45-0.037,0.668-0.115l40.646-14.392
		C220.32,166.434,220.855,165.68,220.855,164.832 M216.855,163.418l-38.121,13.498c-4.406-4.578-24.558-27.381-24.558-61.26
		c0-33.877,20.152-56.681,24.558-61.259l38.121,13.498V163.418z"/>
	<path fill="#CECECE" d="M347.652,58.018l-31.1,12.631c-0.754,0.306-1.248,1.039-1.248,1.853v86.309
		c0,0.814,0.494,1.547,1.248,1.854l31.1,12.631c0.244,0.1,0.498,0.146,0.752,0.146c0.545,0,1.078-0.221,1.463-0.635
		c0.836-0.896,20.457-22.342,20.457-57.15c0-34.809-19.621-56.254-20.457-57.15C349.303,57.899,348.422,57.705,347.652,58.018
		 M347.824,169.047l-28.52-11.582V73.848l28.52-11.583c3.795,4.61,18.5,24.354,18.5,53.391
		C366.324,144.693,351.619,164.438,347.824,169.047"/>
	<path fill="#CECECE" d="M209.522,52.226c0.756,0.493,19.071,12.07,66.665,12.07s65.91-11.577,66.666-12.07
		c0.924-0.602,1.184-1.836,0.586-2.762c-0.6-0.927-1.838-1.191-2.764-0.592c-0.178,0.113-18.287,11.424-64.488,11.424
		c-46.199,0-64.309-11.311-64.48-11.422c-0.925-0.603-2.164-0.342-2.769,0.584C208.336,50.384,208.597,51.623,209.522,52.226"/>
	<path fill="#CECECE" d="M342.854,179.087c-0.756-0.493-19.072-12.069-66.666-12.069s-65.909,11.576-66.665,12.069
		c-0.926,0.604-1.187,1.842-0.584,2.768c0.384,0.588,1.024,0.908,1.678,0.908c0.374,0,0.753-0.105,1.091-0.324
		c0.174-0.115,18.064-11.421,64.48-11.421c46.201,0,64.311,11.31,64.488,11.423c0.926,0.604,2.16,0.338,2.762-0.586
		C344.041,180.929,343.779,179.69,342.854,179.087"/>
</g>
</svg>
